<svg width="20" height="21" viewBox="0 0 20 21" fill="none" xmlns="http://www.w3.org/2000/svg">
<path d="M15.8315 17.1663C8.72233 17.1763 3.32649 11.7163 3.33399 4.66884C3.33399 4.20801 3.70733 3.83301 4.16733 3.83301H6.36733C6.77983 3.83301 7.13066 4.13634 7.19149 4.54467C7.33658 5.52389 7.62143 6.47721 8.03733 7.37551L8.12316 7.56051C8.18082 7.685 8.19322 7.82571 8.15823 7.95837C8.12324 8.09103 8.04305 8.20731 7.93149 8.28717C7.24983 8.77384 6.98983 9.75301 7.52066 10.5163C8.18898 11.4774 9.02311 12.3119 9.98399 12.9805C10.7482 13.5105 11.7273 13.2505 12.2132 12.5697C12.2929 12.4578 12.4093 12.3773 12.5422 12.3421C12.675 12.307 12.816 12.3194 12.9407 12.3772L13.1248 12.4622C14.0232 12.8788 14.9765 13.1638 15.9557 13.3088C16.364 13.3697 16.6673 13.7205 16.6673 14.1338V16.333C16.6673 16.4425 16.6457 16.5509 16.6038 16.6521C16.5619 16.7533 16.5004 16.8452 16.423 16.9226C16.3455 17 16.2535 17.0613 16.1523 17.1031C16.0511 17.145 15.9427 17.1665 15.8332 17.1663H15.8315Z" fill="#FD7332"/>
</svg>
