
<svg width="20" height="21" viewBox="0 0 20 21" fill="none" xmlns="http://www.w3.org/2000/svg">
<path d="M9.34693 16.867C7.99869 15.1908 5 11.1282 5 8.84622C5 6.0776 7.22022 3.83325 9.95907 3.83325C12.6969 3.83325 14.9181 6.0776 14.9181 8.84622C14.9181 11.1282 11.8962 15.1908 10.5712 16.867C10.2535 17.2665 9.66462 17.2665 9.34693 16.867ZM9.95907 10.5172C10.8708 10.5172 11.6121 9.76788 11.6121 8.84622C11.6121 7.92457 10.8708 7.17523 9.95907 7.17523C9.04732 7.17523 8.30605 7.92457 8.30605 8.84622C8.30605 9.76788 9.04732 10.5172 9.95907 10.5172Z" fill="#FD7332"/>
</svg>
