<svg width="20" height="21" viewBox="0 0 20 21" fill="none" xmlns="http://www.w3.org/2000/svg">
<path d="M18.3327 7.67301V14.458C18.3327 15.1498 18.0681 15.8154 17.593 16.3182C17.1179 16.821 16.4684 17.123 15.7777 17.1622L15.6243 17.1663H4.37435C3.68257 17.1664 3.01699 16.9017 2.51416 16.4266C2.01132 15.9515 1.70935 15.302 1.67018 14.6113L1.66602 14.458V7.67301L9.70935 11.8863C9.79883 11.9332 9.89834 11.9577 9.99935 11.9577C10.1004 11.9577 10.1999 11.9332 10.2893 11.8863L18.3327 7.67301ZM4.37435 3.83301H15.6243C16.2957 3.83293 16.9431 4.08217 17.441 4.5324C17.939 4.98262 18.252 5.60174 18.3193 6.26967L9.99935 10.628L1.67935 6.26967C1.74395 5.62827 2.03522 5.03094 2.50081 4.58506C2.96639 4.13918 3.57575 3.874 4.21935 3.83717L4.37435 3.83301Z" fill="#FD7332"/>
</svg>
