<svg width="15" height="16" viewBox="0 0 15 16" fill="none" xmlns="http://www.w3.org/2000/svg">
<path fill-rule="evenodd" clip-rule="evenodd" d="M3.79819 15.4996C3.49446 15.4996 3.19294 15.3942 2.93481 15.1867C2.48915 14.8267 2.27073 14.2324 2.3656 13.634L2.87745 10.3827C2.89657 10.2619 2.85906 10.1395 2.77817 10.0535L0.604285 7.7509C0.204219 7.32848 0.0608137 6.70417 0.229959 6.12446C0.400575 5.53825 0.852119 5.11908 1.40883 5.03151L4.4152 4.55395C4.53139 4.53612 4.63141 4.45747 4.68142 4.34558L6.02502 1.38457C6.27285 0.838911 6.77294 0.5 7.33038 0.5C7.88782 0.5 8.38791 0.838911 8.63574 1.38457L9.98008 4.34477C10.0308 4.45747 10.1301 4.53612 10.2456 4.55395L13.2519 5.03151C13.8086 5.11908 14.2602 5.53825 14.4308 6.12446C14.5999 6.70417 14.4558 7.32848 14.0557 7.7509L11.8819 10.0535C11.801 10.1395 11.7642 10.2619 11.7833 10.3819L12.2959 13.634C12.39 14.2332 12.1716 14.8275 11.7252 15.1867C11.2729 15.5523 10.6839 15.6018 10.1845 15.3148L7.49805 13.7799C7.39289 13.7199 7.26713 13.7199 7.16197 13.7799L4.4755 15.3156C4.26076 15.4388 4.02911 15.4996 3.79819 15.4996Z" fill="#FD7332"/>
</svg>
